<?xml version="1.0" standalone="no"?>
<!DOCTYPE svg PUBLIC "-//W3C//DTD SVG 20010904//EN"
 "http://www.w3.org/TR/2001/REC-SVG-20010904/DTD/svg10.dtd">
<svg version="1.0" xmlns="http://www.w3.org/2000/svg"
 width="500.000000pt" height="500.000000pt" viewBox="0 0 500.000000 500.000000"
 preserveAspectRatio="xMidYMid meet">

<g transform="translate(0.000000,500.000000) scale(0.100000,-0.100000)"
fill="#000000" stroke="none">
<path d="M190 4600 c0 -25 4 -30 23 -29 16 1 18 2 5 6 -10 2 -18 13 -18 23 0
10 8 21 18 23 13 4 11 5 -5 6 -19 1 -23 -4 -23 -29z"/>
<path d="M260 4616 c0 -8 7 -17 16 -20 14 -5 15 -4 5 8 -9 11 -9 15 1 19 8 4
7 6 -4 6 -10 1 -18 -5 -18 -13z"/>
<path d="M329 4598 c5 -30 6 -31 9 -8 2 14 9 28 16 32 7 5 3 8 -10 8 -18 0
-20 -5 -15 -32z"/>
<path d="M460 4621 c12 -9 13 -14 2 -31 -10 -16 -10 -20 1 -20 19 0 16 52 -3
57 -13 4 -13 3 0 -6z"/>
<path d="M531 4613 c7 -12 15 -20 18 -17 3 2 -3 12 -13 22 -17 16 -18 16 -5
-5z"/>
<path d="M572 4600 c0 -19 2 -27 5 -17 2 9 2 25 0 35 -3 9 -5 1 -5 -18z"/>
<path d="M607 4624 c-4 -4 -7 -12 -7 -18 0 -6 4 -4 10 4 5 8 12 11 17 7 4 -4
2 -17 -5 -27 -10 -16 -10 -20 1 -20 9 0 14 10 13 27 -1 26 -16 40 -29 27z"/>
<path d="M504 4590 c1 -8 10 -16 21 -17 15 -1 15 0 3 3 -9 3 -19 11 -21 17 -2
7 -3 5 -3 -3z"/>
<path d="M268 4573 c7 -3 16 -2 19 1 4 3 -2 6 -13 5 -11 0 -14 -3 -6 -6z"/>
<path d="M208 4373 c8 -3 12 -29 12 -78 0 -49 -4 -75 -12 -78 -7 -3 -2 -6 12
-6 24 -1 25 2 22 39 -3 31 -1 40 11 40 8 0 18 -6 20 -12 3 -7 5 1 5 17 0 17
-2 24 -5 18 -11 -28 -33 -13 -33 22 0 32 2 35 30 35 22 0 33 -6 40 -22 8 -22
9 -22 9 5 1 27 0 27 -61 26 -35 0 -57 -3 -50 -6z"/>
<path d="M379 4361 c-19 -15 -24 -29 -24 -64 0 -43 24 -87 47 -87 5 0 2 7 -6
16 -22 21 -21 111 1 136 21 24 12 23 -18 -1z"/>
<path d="M466 4372 c-2 -4 -1 -14 5 -22 7 -12 9 -10 9 8 0 23 -5 28 -14 14z"/>
<path d="M515 4295 l0 -85 35 1 c19 1 27 3 17 6 -16 4 -18 14 -15 84 3 73 2
79 -17 79 -18 0 -20 -7 -20 -85z"/>
<path d="M658 4373 c8 -3 12 -29 12 -78 0 -49 -4 -75 -12 -78 -7 -3 -2 -6 12
-6 25 -1 25 0 25 84 0 84 0 85 -25 84 -14 0 -19 -3 -12 -6z"/>
<path d="M738 4373 c8 -3 12 -29 12 -78 0 -49 -4 -75 -12 -78 -7 -3 -2 -6 12
-6 25 -1 25 -1 22 79 -3 73 -2 80 15 80 25 0 43 -19 43 -45 0 -12 -5 -26 -12
-33 -7 -7 -8 -12 -2 -12 35 0 47 72 15 90 -11 5 -39 10 -63 9 -24 0 -37 -3
-30 -6z"/>
<path d="M949 4371 c7 -5 17 -15 22 -22 6 -10 9 -8 9 9 0 16 -6 22 -22 22 -17
0 -19 -3 -9 -9z"/>
<path d="M1018 4373 c8 -3 12 -29 12 -78 0 -49 -4 -75 -12 -78 -7 -3 -2 -6 12
-6 25 -1 25 -1 22 79 l-2 80 35 0 c27 0 35 -4 35 -17 0 -15 2 -16 9 -3 16 24
3 30 -62 29 -34 0 -56 -3 -49 -6z"/>
<path d="M879 4350 c-11 -29 3 -50 43 -62 22 -6 46 -21 54 -32 14 -20 14 -20
14 2 0 23 -29 47 -72 57 -17 4 -28 15 -30 28 -3 16 -5 18 -9 7z"/>
<path d="M1081 4307 c-8 -10 -7 -19 4 -33 14 -18 14 -17 15 14 0 36 -2 38 -19
19z"/>
<path d="M312 4235 c-10 -21 -9 -25 3 -25 9 0 15 10 15 25 0 14 -2 25 -3 25
-2 0 -9 -11 -15 -25z"/>
<path d="M620 4245 c0 -7 -8 -19 -17 -24 -16 -9 -16 -10 5 -11 17 0 22 6 22
25 0 14 -2 25 -5 25 -3 0 -5 -7 -5 -15z"/>
<path d="M870 4236 c0 -18 5 -24 19 -23 17 1 18 3 4 24 -19 29 -23 29 -23 -1z"/>
<path d="M1122 4235 c-10 -21 -9 -25 3 -25 9 0 15 10 15 25 0 14 -2 25 -3 25
-2 0 -9 -11 -15 -25z"/>
<path d="M463 4232 c-9 -15 -8 -19 3 -19 8 0 14 9 14 19 0 10 -1 18 -3 18 -1
0 -7 -8 -14 -18z"/>
</g>
</svg>
